<svg xmlns="http://www.w3.org/2000/svg" fill="none" viewBox="0 0 24 24" id="Psychology-Alt--Streamline-Sharp-Material" height="24" width="24">
  <desc>
    Psychology Alt Streamline Icon: https://streamlinehq.com
  </desc>
  <path fill="#000000" d="M6 22v-4.3c-0.95 -0.86665 -1.6875 -1.87915 -2.2125 -3.0375C3.2625 13.50415 3 12.28335 3 11c0 -2.5 0.875 -4.625 2.625 -6.375S9.5 2 12 2c2.08335 0 3.92915 0.6125 5.5375 1.8375 1.60835 1.225 2.65415 2.82085 3.1375 4.7875L22.275 15H19v5h-4v2h-1.5v-3.5h4V13.5h2.85l-1.125 -4.5c-0.4 -1.61665 -1.275 -2.9375 -2.625 -3.9625S13.71665 3.5 12 3.5c-2.08335 0 -3.85415 0.720835 -5.3125 2.1625C5.22915 7.10415 4.5 8.86285 4.5 10.9385c0 1.07365 0.219335 2.0936 0.658 3.05975 0.43885 0.96635 1.06115 1.82525 1.867 2.57675l0.475 0.45V22h-1.5Zm6 -6c0.28335 0 0.52085 -0.09585 0.7125 -0.2875S13 15.28335 13 15c0 -0.28335 -0.09585 -0.52085 -0.2875 -0.7125S12.28335 14 12 14c-0.28335 0 -0.52085 0.09585 -0.7125 0.2875S11 14.71665 11 15c0 0.28335 0.09585 0.52085 0.2875 0.7125S11.71665 16 12 16Zm-0.75 -3.2h1.525c0 -0.41665 0.05415 -0.75415 0.1625 -1.0125 0.10835 -0.25835 0.32915 -0.57085 0.6625 -0.9375 0.3 -0.33335 0.59165 -0.67085 0.875 -1.0125S14.9 9.05 14.9 8.5c0 -0.7 -0.27085 -1.29165 -0.8125 -1.775C13.54585 6.24165 12.875 6 12.075 6c-0.66665 0 -1.27085 0.19165 -1.8125 0.575 -0.54165 0.38335 -0.92085 0.88335 -1.1375 1.5L10.5 8.65c0.11665 -0.36665 0.32085 -0.6625 0.6125 -0.8875 0.29165 -0.225 0.6125 -0.3375 0.9625 -0.3375 0.36665 0 0.67085 0.1 0.9125 0.3 0.24165 0.2 0.3625 0.45835 0.3625 0.775 0 0.35 -0.10415 0.6625 -0.3125 0.9375 -0.20835 0.275 -0.45415 0.55415 -0.7375 0.8375 -0.33335 0.35 -0.59165 0.7 -0.775 1.05 -0.18335 0.35 -0.275 0.84165 -0.275 1.475Z" stroke-width="0.5"></path>
</svg>