<?xml version="1.0" encoding="UTF-8"?>
<svg xmlns="http://www.w3.org/2000/svg" width="286.276" height="48.557" viewBox="0 0 286.276 48.557">
  <g id="logo-dark" transform="translate(-196.863 -159)">
    <g id="Group_269" data-name="Group 269">
      <g id="Group_268" data-name="Group 268">
        <g id="Group_267" data-name="Group 267">
          <g id="Group_266" data-name="Group 266">
            <g id="Group_265" data-name="Group 265">
              <g id="Group_264" data-name="Group 264">
                <g id="Group_263" data-name="Group 263">
                  <g id="Group_262" data-name="Group 262">
                    <g id="Group_261" data-name="Group 261">
                      <g id="Group_260" data-name="Group 260" transform="translate(-15.561 68)">
                        <g id="NIEUWE_GOEIE_LOGO" transform="translate(133.847 66.868)">
                          <g id="Group_42" data-name="Group 42" transform="translate(0 11.132)">
                            <path id="Path_1" data-name="Path 1" d="M237.892,28h3.146L252,53.611h-4.049l-2.57-6.331h-12.19l-2.535,6.331H226.6Zm6.222,16.244-4.8-11.754h-.07l-4.826,11.75Z" transform="translate(-97.229 -2.255)" fill="#3c3950"></path>
                            <rect id="Rectangle_1" data-name="Rectangle 1" width="3.255" height="27.352" transform="translate(157.521 24.004)" fill="#3c3950"></rect>
                            <path id="Path_2" data-name="Path 2" d="M310.423,46.813h3.255v2.443h.07a6.2,6.2,0,0,1,2.587-2.138,8.006,8.006,0,0,1,3.386-.759,9.1,9.1,0,0,1,3.6.716,7.936,7.936,0,0,1,2.749,1.915,8.651,8.651,0,0,1,1.745,2.875,10,10,0,0,1,.615,3.53,10.114,10.114,0,0,1-.615,3.565,8.49,8.49,0,0,1-1.745,2.858,8.071,8.071,0,0,1-2.749,1.9,9.1,9.1,0,0,1-3.6.689,7.967,7.967,0,0,1-3.49-.781,5.951,5.951,0,0,1-2.5-2.116h-.07V74.161H310.41Zm8.9,2.618a5.9,5.9,0,0,0-2.352.436A5.266,5.266,0,0,0,315.2,51.1a5.415,5.415,0,0,0-1.121,1.885,7.478,7.478,0,0,0,0,4.8,5.415,5.415,0,0,0,1.121,1.885,5.236,5.236,0,0,0,1.771,1.226,6.322,6.322,0,0,0,4.7,0,5.235,5.235,0,0,0,1.776-1.226,5.48,5.48,0,0,0,1.121-1.885,7.478,7.478,0,0,0,0-4.8,5.48,5.48,0,0,0-1.121-1.885,5.235,5.235,0,0,0-1.776-1.23,5.886,5.886,0,0,0-2.352-.436" transform="translate(-144.472 -12.604)" fill="#3c3950"></path>
                            <path id="Path_3" data-name="Path 3" d="M361.1,24h3.255V36.849h.074a4.8,4.8,0,0,1,2.134-2.225,7.055,7.055,0,0,1,3.49-.873,7.444,7.444,0,0,1,2.369.38,5.3,5.3,0,0,1,1.99,1.178,5.636,5.636,0,0,1,1.357,2.042,7.77,7.77,0,0,1,.506,2.949V51.356H373.02V41.225a5.794,5.794,0,0,0-.323-2.042,3.739,3.739,0,0,0-.873-1.374,3.233,3.233,0,0,0-1.248-.759,4.559,4.559,0,0,0-1.462-.236,5.371,5.371,0,0,0-1.88.323,3.927,3.927,0,0,0-1.523,1.034A4.838,4.838,0,0,0,364.7,39.96a8.184,8.184,0,0,0-.362,2.57v8.826H361.1Z" transform="translate(-173.046)" fill="#3c3950"></path>
                            <path id="Path_4" data-name="Path 4" d="M406.2,48.932a9.052,9.052,0,0,1,3.181-1.9,11,11,0,0,1,3.639-.633,9.918,9.918,0,0,1,3.237.471,6.371,6.371,0,0,1,2.225,1.265,5.052,5.052,0,0,1,1.283,1.828,5.672,5.672,0,0,1,.414,2.151v8.757q0,.9.039,1.662c.022.506.057.99.1,1.449h-2.893c-.07-.873-.109-1.745-.109-2.618h-.07a6.244,6.244,0,0,1-2.57,2.352,8.1,8.1,0,0,1-3.438.689,7.854,7.854,0,0,1-2.277-.327,5.515,5.515,0,0,1-1.9-.977,4.647,4.647,0,0,1-1.3-1.606,5.55,5.55,0,0,1,.275-5,5.606,5.606,0,0,1,2.029-1.828,9.725,9.725,0,0,1,3-1.025,20.817,20.817,0,0,1,3.674-.31h2.387v-.711a3.538,3.538,0,0,0-2.277-3.307A4.839,4.839,0,0,0,413.04,49a6.544,6.544,0,0,0-1.645.183,7.3,7.3,0,0,0-1.287.436,5.907,5.907,0,0,0-1.047.633c-.314.244-.615.471-.908.689Zm9.189,6.8a22.015,22.015,0,0,0-2.369.127,9.216,9.216,0,0,0-2.208.484,4.246,4.246,0,0,0-1.627,1.017,2.273,2.273,0,0,0-.633,1.662,2.352,2.352,0,0,0,.977,2.134,4.848,4.848,0,0,0,2.692.654,5.235,5.235,0,0,0,2.282-.436,4.267,4.267,0,0,0,1.518-1.178,4.571,4.571,0,0,0,.833-1.61,6.458,6.458,0,0,0,.253-1.745V55.734Z" transform="translate(-197.962 -12.624)" fill="#3c3950"></path>
                            <path id="Path_5" data-name="Path 5" d="M452.117,27.993h9.01a10.567,10.567,0,0,1,4.053.672,6.907,6.907,0,0,1,2.513,1.7,5.8,5.8,0,0,1,1.283,2.317,9.011,9.011,0,0,1,.362,2.478,6.623,6.623,0,0,1-.436,2.369,6.752,6.752,0,0,1-1.248,2.064,7.138,7.138,0,0,1-1.99,1.553,6.906,6.906,0,0,1-2.618.781l7.269,11.68h-4.363l-6.479-11.287H455.59V53.6H452.1Zm3.49,11.287h4.559a12.33,12.33,0,0,0,2.007-.161,5.367,5.367,0,0,0,1.776-.6,3.263,3.263,0,0,0,1.248-1.248,5.03,5.03,0,0,0,0-4.232,3.294,3.294,0,0,0-1.248-1.248,5.468,5.468,0,0,0-1.776-.6,12.33,12.33,0,0,0-2.007-.161H455.59Z" transform="translate(-224.343 -2.248)" fill="#3c3950"></path>
                            <path id="Path_6" data-name="Path 6" d="M499.9,48.932a9.054,9.054,0,0,1,3.181-1.9A10.986,10.986,0,0,1,506.7,46.4a9.926,9.926,0,0,1,3.242.471,6.371,6.371,0,0,1,2.225,1.265,5.053,5.053,0,0,1,1.283,1.828,5.751,5.751,0,0,1,.436,2.151v8.757c0,.6,0,1.156.035,1.662s.061.99.109,1.449h-2.893q-.109-1.309-.109-2.618h-.07a6.269,6.269,0,0,1-2.57,2.352,8.1,8.1,0,0,1-3.438.689,7.854,7.854,0,0,1-2.278-.327,5.577,5.577,0,0,1-1.929-.964,4.685,4.685,0,0,1-1.278-1.619,5.111,5.111,0,0,1,2.3-6.837,9.728,9.728,0,0,1,3-1.017,20.8,20.8,0,0,1,3.669-.31h2.391v-.711a3.608,3.608,0,0,0-1.012-2.469,3.665,3.665,0,0,0-1.27-.829,4.8,4.8,0,0,0-1.806-.31,6.614,6.614,0,0,0-1.649.183,7.246,7.246,0,0,0-1.283.436,5.793,5.793,0,0,0-1.052.633c-.31.244-.611.471-.9.689Zm9.189,6.8a22.157,22.157,0,0,0-2.374.127,9.228,9.228,0,0,0-2.2.484,4.245,4.245,0,0,0-1.627,1.017,2.278,2.278,0,0,0-.637,1.662,2.347,2.347,0,0,0,1,2.134,4.83,4.83,0,0,0,2.692.654,5.236,5.236,0,0,0,2.282-.436,4.307,4.307,0,0,0,1.518-1.178,4.572,4.572,0,0,0,.833-1.61,6.453,6.453,0,0,0,.253-1.745V55.734Z" transform="translate(-250.775 -12.624)" fill="#3c3950"></path>
                            <path id="Path_7" data-name="Path 7" d="M542.77,30.17a2.4,2.4,0,1,1,.707,1.684,2.3,2.3,0,0,1-.707-1.684m.759,6.152H546.8V53.468h-3.259Z" transform="translate(-275.453 -2.112)" fill="#3c3950"></path>
                            <path id="Path_8" data-name="Path 8" d="M563.824,46.807h3.259v2.64h.07a4.8,4.8,0,0,1,2.138-2.225,7.055,7.055,0,0,1,3.49-.873,7.444,7.444,0,0,1,2.369.38,5.336,5.336,0,0,1,1.989,1.178,5.672,5.672,0,0,1,1.357,2.042A7.854,7.854,0,0,1,579,52.9V63.954h-3.237V53.823a5.672,5.672,0,0,0-.327-2.042,3.735,3.735,0,0,0-.873-1.374,3.263,3.263,0,0,0-1.248-.759,4.607,4.607,0,0,0-1.466-.236,5.388,5.388,0,0,0-1.88.323,3.9,3.9,0,0,0-1.518,1.034,4.8,4.8,0,0,0-1.012,1.789,8.068,8.068,0,0,0-.362,2.57v8.826H563.82Z" transform="translate(-287.319 -12.598)" fill="#3c3950"></path>
                            <path id="Path_9" data-name="Path 9" d="M609.94,24h3.255V36.653h.074a5.908,5.908,0,0,1,2.5-2.12,7.994,7.994,0,0,1,3.49-.777,9.084,9.084,0,0,1,3.582.716,8.071,8.071,0,0,1,2.749,1.9,8.45,8.45,0,0,1,1.745,2.858,10.113,10.113,0,0,1,.615,3.565,9.923,9.923,0,0,1-.615,3.543,8.687,8.687,0,0,1-1.745,2.862,7.937,7.937,0,0,1-2.749,1.915,9.083,9.083,0,0,1-3.6.689,8.008,8.008,0,0,1-3.387-.751,6.226,6.226,0,0,1-2.582-2.137h-.074v2.443H609.94Zm8.9,24.747a5.9,5.9,0,0,0,2.352-.436,5.277,5.277,0,0,0,1.772-1.235,5.421,5.421,0,0,0,1.121-1.88,7.479,7.479,0,0,0,0-4.8,5.481,5.481,0,0,0-1.121-1.885,5.269,5.269,0,0,0-1.771-1.23,6.379,6.379,0,0,0-4.7,0,5.236,5.236,0,0,0-1.776,1.23,5.482,5.482,0,0,0-1.121,1.885,7.479,7.479,0,0,0,0,4.8,5.419,5.419,0,0,0,1.121,1.88,5.237,5.237,0,0,0,1.8,1.226,5.886,5.886,0,0,0,2.352.436" transform="translate(-313.317)" fill="#3c3950"></path>
                            <path id="Path_10" data-name="Path 10" d="M658.69,55.407a8.692,8.692,0,0,1,.707-3.49,9.171,9.171,0,0,1,16.824-.022,8.688,8.688,0,0,1,.7,3.49,8.888,8.888,0,0,1-2.64,6.383,9.316,9.316,0,0,1-12.95,0,8.918,8.918,0,0,1-2.644-6.383m3.49,0a7.1,7.1,0,0,0,.4,2.4,5.424,5.424,0,0,0,1.126,1.885,5.236,5.236,0,0,0,1.772,1.23,6.378,6.378,0,0,0,4.7,0,5.283,5.283,0,0,0,1.736-1.209,5.415,5.415,0,0,0,1.121-1.885,7.491,7.491,0,0,0,0-4.8,5.436,5.436,0,0,0-1.121-1.894,5.235,5.235,0,0,0-1.745-1.23,6.379,6.379,0,0,0-4.7,0,5.18,5.18,0,0,0-1.771,1.23A5.447,5.447,0,0,0,662.568,53a7.149,7.149,0,0,0-.4,2.408" transform="translate(-340.797 -12.624)" fill="#3c3950"></path>
                            <path id="Path_11" data-name="Path 11" d="M705.13,47.4h3.652l3.853,12.805h.074L716.814,47.4h3.473l4.341,12.805h.074L728.354,47.4h3.473l-5.537,17.147H723l-4.542-12.805h-.074l-4.141,12.805h-3.473Z" transform="translate(-366.975 -13.191)" fill="#3c3950"></path>
                          </g>
                          <g id="Group_41" data-name="Group 41" transform="translate(0 -0.202)">
                            <path id="Path_39" data-name="Path 39" d="M110.484,46.192l.051-.065L115.12,39.1l-5.81-7.676c-.343,2.1-2.344,8.812-2.344,8.812s-.223-.686-3.569-7.621c-3.257-6.767-6.558-7.244-6.558-7.244-4.6-1.458-9.54,1.568-9.54,1.568s-7.5,3.346-8.617,16.917c-1.1,13.345,6.623,18,6.623,18s3.819,2.344,9.838,0c2.776-1.081,6.575-5.017,9.715-8.647l5.6,9.656h9.862ZM92.27,56.209s-3.208-.161-3.9-7.621a28.188,28.188,0,0,1,1.373-12.4S92,30.349,94.792,32.857c2.639,2.381,7.337,14.838,7.337,14.838-6.177,9.488-9.862,8.514-9.862,8.514" transform="translate(0 -0.639)" fill="#3c3950"></path>
                            <path id="Path_40" data-name="Path 40" d="M171.66,29.99l6.877,8.9,3.071-8.9Z" transform="translate(-61.142 -3.935)" fill="#ed6834"></path>
                          </g>
                        </g>
                      </g>
                    </g>
                  </g>
                </g>
              </g>
            </g>
          </g>
        </g>
      </g>
    </g>
  </g>
</svg>
