<svg width="94" height="100" xmlns="http://www.w3.org/2000/svg"><g fill="none" fill-rule="evenodd"><path d="M35.835.331L47.39 20.344 24.281 60.368H1.172L35.835.331zm57.771 10.006c0 5.526-4.48 10.006-10.006 10.006s-10.006-4.48-10.006-10.006S78.074.331 83.6.331s10.006 4.48 10.006 10.006z" fill="#DAAA00"/><path d="M58.943.331l34.663 60.037H70.498L58.943 40.355 47.39 60.368 35.835 40.355 58.943.331zm-51.99 79.54L4.66 73.864l-.502 6.143H.135l1.233-13.48h3.85l3.063 7.664 3.062-7.663h3.851l1.232 13.48h-4.024l-.501-6.144-2.292 6.009H6.952zm12.64.135l5.219-13.479h3.581l5.354 13.48h-4.295l-.866-2.254H24.58l-.809 2.253h-4.178zm5.623-5.412h2.696l-1.29-3.793-1.406 3.793zm14.012.656c.269 1.233 1.059 1.887 2.387 1.887.924 0 1.58-.308 1.58-.963 0-.328-.173-.751-1.136-1.06l-1.522-.576c-.654-.212-3.928-1.08-3.967-3.95 0-2.598 2.196-4.273 5.141-4.273 2.543 0 4.16 1.25 4.93 3.504l-3.235.924c-.269-.75-.654-1.347-1.617-1.347-.654 0-1.27.269-1.27.846 0 .387.268.733 1.096 1.021l1.503.52c3.003 1.04 3.947 2.35 4.005 4.256 0 2.869-2.58 4.179-5.508 4.179-3.119 0-5.237-1.502-5.642-4.217l3.255-.75zm18.247-8.935c2.234 0 3.755.885 5.2 2.157l-2.292 2.619c-.906-1.022-1.984-1.31-2.908-1.31-2.1 0-3.466 1.54-3.466 3.485 0 1.945 1.367 3.485 3.466 3.485.924 0 2.002-.288 2.908-1.309l2.291 2.62c-1.444 1.27-2.965 2.156-5.2 2.156-4.543 0-7.51-3.197-7.51-6.952 0-3.756 2.967-6.951 7.51-6.951zm7.729 6.95c0-3.755 2.735-6.95 7.279-6.95 4.545 0 7.28 3.195 7.28 6.95 0 3.756-2.735 6.953-7.28 6.953-4.544 0-7.28-3.197-7.28-6.952zm10.514 0c0-1.886-1.175-3.485-3.235-3.485-2.06 0-3.235 1.599-3.235 3.486 0 1.888 1.174 3.485 3.235 3.485 2.06 0 3.235-1.597 3.235-3.485zm18.145-6.738v3.466h-3.66v10.013h-3.965V69.993h-3.583v-3.466h11.208zM0 92.949C0 89.194 2.735 86 7.28 86c4.544 0 7.279 3.195 7.279 6.95 0 3.756-2.735 6.952-7.28 6.952-4.544 0-7.28-3.196-7.28-6.952zm10.515 0c0-1.886-1.175-3.485-3.236-3.485-2.06 0-3.235 1.599-3.235 3.485 0 1.887 1.175 3.486 3.235 3.486 2.061 0 3.236-1.599 3.236-3.486zm12.977.309v6.432h-4.044V86.21h3.158l4.487 6.317v-6.318h4.044v13.48h-3.14l-4.505-6.431zm18.682 2.966h6.046v3.466H38.129V86.21h4.045v10.014zM53.99 99.69V86.21h4.043v13.48h-4.043zm15.049-6.432v6.432h-4.045V86.21h3.159l4.487 6.317v-6.318h4.044v13.48h-3.14l-4.505-6.431zm14.635 6.432V86.21h9.803v3.466H87.72v1.753h5.026v3.08H87.72v1.715h5.758v3.466h-9.803z" fill="#3F4444"/></g></svg>