<?xml version="1.0" encoding="UTF-8"?> <svg xmlns="http://www.w3.org/2000/svg" width="177" height="180" viewBox="0 0 177 180" fill="none"><path fill-rule="evenodd" clip-rule="evenodd" d="M88.2469 3.93555C136.866 3.93555 176.279 43.3492 176.279 91.9679C176.279 140.587 136.866 180 88.2469 180C39.6282 180 0.2146 140.587 0.2146 91.9679C0.2146 43.3492 39.6282 3.93555 88.2469 3.93555ZM153.169 116.956H152.975V117.571H153.234C153.428 117.571 153.558 117.474 153.558 117.247C153.558 117.085 153.46 116.956 153.169 116.956ZM153.331 115.725C152.197 115.725 151.291 116.632 151.291 117.766C151.291 118.899 152.197 119.806 153.331 119.806C154.465 119.806 155.371 118.899 155.371 117.766C155.371 116.632 154.432 115.725 153.331 115.725ZM153.687 118.964L153.234 118.122H152.943V118.964H152.327V116.438H153.202C153.46 116.438 153.59 116.438 153.687 116.503C153.979 116.6 154.141 116.859 154.141 117.247C154.141 117.507 154.011 117.798 153.752 117.928C153.752 117.928 153.785 117.96 153.85 118.09L154.336 118.964L153.687 118.964ZM145.688 149.374C144.813 150.249 144.813 151.641 145.688 152.515C146.562 153.39 147.955 153.39 148.829 152.515C149.704 151.641 149.704 150.249 148.829 149.374C147.955 148.5 146.562 148.5 145.688 149.374ZM88.0088 173.275C86.7782 173.275 85.774 174.279 85.774 175.509C85.774 176.74 86.7782 177.744 88.0088 177.744C89.2394 177.744 90.2436 176.74 90.2436 175.509C90.2436 174.279 89.2394 173.275 88.0088 173.275ZM27.1559 149.374C26.2814 150.249 26.2814 151.641 27.1559 152.515C28.0304 153.39 29.4228 153.39 30.2972 152.515C31.1723 151.641 31.1723 150.249 30.2972 149.374C29.4553 148.5 28.0304 148.5 27.1559 149.374ZM4.19462 89.4603C2.96404 89.4603 1.95983 90.4645 1.95983 91.6951C1.95983 92.9256 2.96404 93.9299 4.19462 93.9299C5.42519 93.9299 6.42941 92.9256 6.42941 91.6951C6.42941 90.4645 5.42519 89.4603 4.19462 89.4603ZM30.3298 34.016C31.2043 33.1416 31.2043 31.7492 30.3298 30.8747C29.4553 30.0003 28.063 30.0003 27.1885 30.8747C26.314 31.7492 26.314 33.1416 27.1885 34.016C28.0304 34.8905 29.4553 34.8905 30.3298 34.016ZM88.0088 10.1151C89.2394 10.1151 90.2436 9.11144 90.2436 7.88086C90.2436 6.64975 89.2394 5.64607 88.0088 5.64607C86.7782 5.64607 85.774 6.64975 85.774 7.88086C85.7746 9.11144 86.7782 10.1151 88.0088 10.1151ZM148.829 34.016C149.704 33.1416 149.704 31.7492 148.829 30.8747C147.955 30.0003 146.562 30.0003 145.688 30.8747C144.813 31.7492 144.813 33.1416 145.688 34.016C146.562 34.8905 147.955 34.8905 148.829 34.016ZM171.791 93.9293C173.022 93.9293 174.025 92.9256 174.025 91.6951C174.025 90.464 173.022 89.4603 171.791 89.4603C170.56 89.4603 169.556 90.464 169.556 91.6951C169.589 92.9256 170.56 93.9293 171.791 93.9293ZM25.2778 67.0494C25.8282 67.3083 26.1843 67.5678 26.2814 67.7941L28.1601 68.6686L29.0021 66.8876C29.1644 66.5636 29.1318 66.0777 28.8723 65.4302C28.646 64.8146 28.3545 64.3939 28.0304 64.2642C27.6418 64.0699 26.1843 64.0053 23.6585 64.0699L23.0104 65.4627C23.7877 65.7542 24.6302 66.1429 25.4721 66.5961L25.2778 67.0494ZM40.2075 45.0272C40.499 45.0597 40.7254 45.1243 40.8551 45.2861C40.9523 45.4158 41.0494 45.6427 41.114 45.9988L46.7496 52.055L49.4376 49.5288L41.9885 41.5292L39.8514 43.5371C40.2401 43.9258 40.499 44.2498 40.6613 44.5739L40.2075 45.0272ZM88.0088 11.3783C43.7375 11.3783 7.69201 47.4237 7.69201 91.6951C7.69201 135.998 43.7375 172.011 88.0088 172.011C132.28 172.011 168.326 135.966 168.326 91.6951C168.326 47.3911 132.28 11.3783 88.0088 11.3783ZM107.052 24.8511C108.12 25.3043 109.059 25.4661 109.837 25.2718C110.291 25.1426 110.841 24.8185 111.456 24.3327C112.072 23.8468 112.557 23.5554 112.881 23.4582L113.335 35.5707L119.099 28.1541C118.354 27.7655 117.545 27.4414 116.638 27.1179L117.383 25.3689L126.548 29.2875C126.321 29.3201 125.9 29.4819 125.252 29.8059C124.734 30.0649 124.281 30.1946 123.925 30.162C123.633 30.13 123.309 30.0328 122.92 29.8059C122.37 29.579 122.014 29.4173 121.917 29.3847C121.625 29.547 121.01 30.2266 120.038 31.4572C119.067 32.6883 118.484 33.4977 118.322 33.8863C118.127 34.3075 118.127 34.8259 118.257 35.4089L109.869 46.4195C109.707 45.7393 109.642 45.3833 109.642 45.3187C109.513 44.8654 109.318 44.4767 109.091 44.1852C109.027 44.0875 108.573 43.7966 107.731 43.2782C107.084 42.8895 106.695 42.3717 106.598 41.7561C106.371 40.2341 106.241 37.7078 106.144 34.1778C106.015 28.7691 105.918 25.4661 105.853 24.2355C106.015 24.3647 106.436 24.5916 107.052 24.8511ZM109.383 123.012C110.873 123.271 111.683 124.275 112.104 125.15C111.423 124.89 110.873 124.89 110.808 124.89L109.642 124.858L110.258 125.829C110.679 126.542 110.873 127.254 110.906 127.902C110.355 127.416 109.837 127.254 109.805 127.222L108.833 126.93L108.995 127.934C108.995 127.999 109.966 134.768 102.421 139.204C94.1948 144.03 88.8513 141.472 84.2525 137.974C82.1149 136.322 79.3297 135.772 76.7062 135.674C82.8276 133.764 84.7058 132.792 84.7704 132.759C85.0619 132.662 91.7336 130.007 94.0651 124.728C94.9395 122.72 95.0367 120.615 94.3891 118.445C96.397 117.668 98.4049 116.405 100.283 114.397C102.485 112.033 104.655 110.511 106.598 109.539C105.724 111.612 104.331 115.369 104.688 117.02C104.882 117.862 105.335 118.51 106.048 118.931C106.048 118.931 107.667 119.967 111.165 118.996C111.845 118.801 112.525 119.449 112.59 120.162C112.655 120.874 112.136 121.522 111.424 121.587L104.17 122.105L109.383 123.012ZM77.4189 67.8913C78.2934 70.2233 80.2687 71.9397 83.3129 73.0085C83.2803 73.5915 83.1506 74.822 82.2441 75.9229C81.1753 77.2832 79.3617 78.0931 76.8354 78.3846C75.9289 77.6718 71.9131 74.2711 71.9777 69.7049C72.0423 66.5961 73.9856 63.552 77.7425 60.6696C77.0623 62.5478 76.4473 65.3004 77.4189 67.8913ZM84.7378 71.6482C82.3738 71.0652 81.4993 70.2233 81.4993 70.2233C83.6044 69.2836 86.0009 68.6686 88.7861 68.6686L84.4143 74.4659C84.9321 73.1377 84.7378 71.6482 84.7378 71.6482ZM96.5588 102.188C96.5588 102.188 94.0005 102.609 91.96 102.512C91.96 102.512 88.7861 102.479 87.2966 100.439C87.2966 100.439 85.1916 98.0428 84.5114 96.2938C84.5114 96.2938 85.3859 95.2896 85.71 94.8043C89.8229 95.808 89.8229 95.808 93.2878 96.1967C93.2878 96.1967 94.5189 97.2009 96.656 97.8485C96.656 98.6258 96.9149 99.338 97.2715 99.9535C95.2956 99.5003 94.5835 98.4315 94.5835 98.4315C94.5835 98.4315 94.4537 100.634 96.5588 102.188ZM86.5514 88.1325L88.0088 87.0312C94.5509 88.4561 101.902 89.4603 108.283 88.7155C108.347 89.2014 108.444 89.9787 108.38 91.0149C106.242 89.3631 102.065 88.3594 96.1701 90.205C96.1701 90.205 92.2195 91.4682 88.9159 92.9582L94.8429 94.61C94.7778 94.9015 94.2599 95.1279 94.2599 95.1279C88.3329 94.642 83.7667 92.9902 83.7667 92.9902C83.9936 92.6667 84.0907 92.3101 84.0907 92.3101L87.815 91.5979L86.5514 88.1325ZM89.9521 85.8006L103.36 75.7611C106.469 79.7123 107.634 84.538 108.056 87.2906C102.388 87.841 95.9112 87.0312 89.9521 85.8006ZM95.1659 95.8726C96.7206 95.5811 96.7531 93.9619 96.7531 93.9619L92.4458 92.8605C94.6806 91.6951 98.4049 90.8852 98.4049 90.8852C103.133 89.8489 106.436 90.8852 107.894 92.2455C108.671 92.9577 108.995 93.7676 108.8 94.5449C108.574 95.5165 107.505 96.3584 105.886 96.8443C101.028 98.2692 97.0772 96.8443 95.1659 95.8726ZM106.922 78.1256C108.865 77.3158 111.197 75.8909 112.913 73.3646C113.011 75.9234 112.59 80.4245 108.963 83.2423C108.509 81.623 107.829 79.8741 106.922 78.1256ZM86.325 86.7402L85.1264 83.4366L106.793 61.7384L110.323 68.7984L86.325 86.7402ZM86.1307 90.6588L84.3171 91.0475C84.3171 90.6908 84.3171 90.3348 84.2194 89.8815C83.7987 87.5821 81.7908 83.2102 77.192 83.2102C77.0623 83.2102 76.9651 83.2428 76.609 83.1777L77.6453 81.4613L83.7015 83.9224L86.1307 90.6588ZM77.8722 79.842C79.6206 79.5826 81.0135 78.9024 82.1469 78.1251L80.139 80.8457L77.8722 79.842ZM73.5003 77.5747C74.8281 79.1619 76.253 79.9066 76.3501 79.9712L76.9005 79.9066L75.6048 82.0763L71.1684 80.3925C72.14 78.4817 73.5003 77.5747 73.5003 77.5747ZM75.0224 83.3394C72.5281 84.0196 70.4882 85.736 69.3548 87.5495C69.1605 86.1246 69.0628 83.7927 70.391 81.7202C71.1358 81.9791 72.8522 82.5947 75.0224 83.3394ZM72.3664 86.3836C74.4394 84.7643 76.9651 84.2785 78.8759 84.9261L76.253 86.8048C74.4714 88.1971 73.8884 90.3348 74.9572 91.6951C75.7346 92.6987 77.2246 92.9582 78.6821 92.4072C78.5844 93.5732 77.8722 96.1315 73.9856 96.1641C72.4635 96.1641 71.1032 95.6132 70.2613 94.5123C68.4803 92.3101 69.4194 88.6504 72.3664 86.3836ZM80.2036 91.7271C80.5923 91.7271 80.9163 91.4036 80.9163 91.0149C80.9163 90.6263 80.5923 90.3022 80.2036 90.3022C80.0418 90.3022 79.9121 90.3348 79.8149 90.4319L78.5518 91.371C78.2929 91.5333 77.9694 91.6305 77.6127 91.6305C76.6085 91.6305 75.8317 90.8206 75.8317 89.8489C75.8317 89.8489 75.7992 88.9745 76.285 88.6184L80.171 85.7034C80.171 85.7034 82.3412 87.4524 82.8265 90.2702C82.8265 90.2702 83.1506 91.922 81.92 92.6993L83.8953 94.9987C81.337 98.6904 74.6983 100.439 74.6983 100.439L74.0828 97.3301C80.5277 96.7797 80.2036 91.7271 80.2036 91.7271ZM83.41 97.557C86.4222 103.062 88.43 103.451 88.8187 103.451C92.1543 103.71 94.4537 104.876 96.397 106.366C95.6197 106.852 94.8744 107.402 94.1297 108.018C93.2552 108.73 92.575 109.443 91.8949 110.123C89.8224 112.195 87.8791 114.171 81.4022 116.47L81.0781 116.568C83.1186 111.256 80.9809 107.596 80.0093 105.945C79.9121 105.751 79.815 105.589 79.7178 105.459C79.2971 104.714 78.0014 102.544 77.1595 101.152C79.0056 100.471 81.4347 99.2734 83.41 97.557ZM107.602 110.446C107.861 109.831 108.088 109.28 108.315 108.762C109.708 108.244 110.906 107.953 111.91 107.855C112.201 110.155 111.618 110.543 111.651 110.543C110.549 111.029 107.602 110.446 107.602 110.446ZM110.549 116.535L110.064 118.025C107.926 118.608 106.922 117.96 106.922 117.96C106.63 117.798 106.404 117.539 106.274 117.247L110.549 116.535ZM99.1497 113.329C93.3849 119.482 86.1953 118.381 82.9893 117.507C88.5272 115.337 90.5671 113.912 92.575 111.872C93.2557 111.192 95.231 109.216 96.073 108.536C99.8944 105.33 102.712 104.358 107.991 104.552C107.991 104.552 111.294 104.779 112.46 106.301C109.61 106.463 104.558 107.564 99.1497 113.329ZM81.2724 118.057C81.3376 118.09 84.3171 119.547 88.2357 119.547C89.7252 119.547 91.4096 119.352 93.0934 118.834C93.6118 120.713 93.4501 122.267 92.7373 123.984C89.7578 131.432 70.65 135.772 70.65 135.772C69.2571 133.117 69.0628 129.748 69.0628 129.748C69.0628 129.748 77.1595 125.992 80.6569 117.798L81.2724 118.057ZM112.104 102.318C110.841 102.318 109.772 101.702 109.351 100.828C109.189 101.378 109.157 101.929 109.318 102.544C109.383 102.803 109.513 103.062 109.642 103.257C109.124 103.159 108.574 103.127 107.991 103.095C104.039 102.933 100.736 103.645 97.6596 105.33L95.2951 103.969L99.376 103.322L98.3718 102.35C98.1775 102.156 97.7888 101.767 97.4327 101.314C97.8214 101.411 98.2421 101.476 98.7279 101.508L100.477 101.605L99.2137 100.439C99.2137 100.439 98.1124 99.3705 97.918 98.2692C98.0803 98.3017 98.2747 98.3669 98.4364 98.3989C99.1166 98.5286 100.38 98.7555 101.934 98.7555C101.675 99.1116 101.481 99.5323 101.351 99.9535C101.286 100.278 101.481 100.601 101.805 100.699C102.128 100.796 102.452 100.569 102.549 100.245C102.679 99.6946 103.003 99.2414 103.488 98.9499C103.975 98.6584 104.525 98.5612 105.076 98.723C105.626 98.8527 106.08 99.1762 106.371 99.662C106.663 100.148 106.759 100.699 106.598 101.249C106.533 101.573 106.727 101.897 107.052 101.994C107.084 101.994 107.149 102.027 107.181 102.027C107.44 102.027 107.699 101.832 107.764 101.573C107.991 100.731 107.828 99.8243 107.375 99.0796C107.148 98.6909 106.825 98.3348 106.436 98.0754C107.213 97.8165 107.991 97.4278 108.735 96.942C109.48 96.391 109.804 95.776 109.998 95.2256C110.031 95.193 110.906 92.1489 115.051 92.1489C116.702 92.1489 118.063 92.7318 119.002 93.7681C119.876 94.7072 120.329 96.0675 120.232 97.3301C120.103 98.8847 119.455 100.213 118.451 100.861C117.512 101.508 116.281 101.605 114.759 101.184C114.241 101.832 113.237 102.318 112.104 102.318ZM111.327 67.3083L108.023 60.6696L113.335 55.3581C113.562 57.366 113.594 61.6733 111.327 67.3083ZM112.233 54.3219L106.76 59.6008L100.251 56.5241C101.999 55.6496 106.761 53.836 112.233 54.3219ZM105.595 60.8314L83.9284 82.5301L81.1758 81.4287L98.9553 57.6901L105.595 60.8314ZM77.8071 22.2922C79.7183 20.0574 82.1149 18.8594 84.9967 18.7297C86.1627 18.6651 87.0046 18.7622 87.523 19.0537C87.9762 19.2806 88.9479 20.1226 90.3728 21.5475L83.993 21.8715L84.4137 29.7734L83.7336 29.8059L83.8959 33.2387C83.9605 34.3721 84.4137 35.3112 85.2882 36.0565C86.0981 36.7687 87.0372 37.0928 88.0734 37.0282C89.1748 36.963 90.211 36.5744 91.2153 35.8622C92.3812 35.0203 92.9317 33.9835 92.8671 32.818C92.8345 32.1379 92.575 31.7813 92.1218 31.8138C91.7982 31.8138 91.377 32.2025 90.8266 32.8826L90.7615 31.7813C89.9521 31.7492 89.2074 31.7813 88.5918 31.879L88.4946 29.6767L93.2878 29.4173L93.7084 37.4488L93.0283 36.8338C91.1176 38.5502 89.0776 39.4567 86.8754 39.5865C86.7457 39.5865 86.5188 39.6511 86.1953 39.7162C85.8712 39.7808 85.6123 39.8454 85.3854 39.8454C84.7052 39.878 84.0576 39.6511 83.4095 39.1978C80.6569 37.1899 78.9405 35.8622 78.1957 35.182C76.2199 33.3039 75.1836 31.4903 75.0864 29.7088C75.0224 27.0207 75.8969 24.4944 77.8071 22.2922ZM54.0684 28.8343C54.2307 28.7692 54.3279 28.5748 54.2953 28.1541L68.7398 31.6195L65.1447 22.6809L68.61 21.288L76.1232 39.9746C75.994 39.942 75.8317 39.942 75.5728 40.0397C75.2487 40.1689 74.9898 40.4604 74.7955 40.9142L59.6068 36.9305L63.3957 46.3223C60.9666 44.0555 59.0564 42.0797 57.6635 40.4284C55.7528 38.1285 54.3605 35.9262 53.4854 33.7892C53.1939 33.0764 52.9996 32.3317 52.935 31.5869C52.8378 30.3884 52.6435 29.2224 52.352 28.0564L54.0684 28.8343ZM36.6775 39.8128C36.6775 39.8128 37.1308 39.5539 38.0378 39.0681C38.9444 38.5823 39.5274 38.1936 39.8188 37.9341C41.6324 36.2177 43.9323 35.5055 46.7821 35.8616C49.2759 36.1857 51.1866 37.0602 52.5143 38.4851C54.6519 40.7519 55.4613 43.6669 54.9434 47.1322C54.4576 50.2735 53.1945 52.7998 51.1866 54.71C49.1141 56.6213 46.6204 57.4306 43.6408 57.1391C40.8877 56.8802 38.6854 55.8114 36.9696 53.9652C35.2206 52.0871 34.281 49.7877 34.0867 47.035C33.8598 44.0555 34.7017 41.659 36.6775 39.8128ZM18.6711 69.0899L21.3912 62.9364C21.4237 62.8718 21.5535 62.7747 21.7798 62.6775L23.9175 58.0787C24.4359 57.0099 25.3103 56.2972 26.5409 55.9737C27.7069 55.6496 28.8077 55.7468 29.8765 56.2326C31.0751 56.7836 32.0467 58.0462 32.7264 59.9895L43.2196 59.7951C42.9276 60.0541 42.6687 60.4107 42.4743 60.8314C41.5678 62.8072 42.0211 64.6208 43.8672 66.3367L43.5757 66.9848C43.3814 67.0174 42.3126 67.0174 40.4018 67.0494C38.75 67.0168 37.0982 67.0168 35.479 66.9848C32.791 67.0174 31.366 67.1466 31.2363 67.406C31.2043 67.4706 31.1717 67.6975 31.1391 68.0536C31.1066 68.4423 31.01 68.7984 30.8477 69.1224C31.1392 69.3813 31.5604 69.6403 32.1434 69.8997C32.8556 70.2233 33.3739 70.353 33.6329 70.2558L37.0982 71.8751C37.6166 71.2275 38.0373 70.8063 38.2968 70.5799C38.9769 69.9969 39.6891 69.6082 40.4339 69.4785L35.9002 79.227L18.606 71.1629C18.7683 70.7091 18.8975 70.2884 19.0272 69.8672C19.0918 69.4139 18.9946 69.1544 18.6711 69.0899ZM16.566 76.2795L21.3591 76.7007L21.1648 78.9676L18.8975 78.7732L18.4762 83.5012L33.115 84.7969C33.2122 84.1493 33.2768 83.5012 33.2768 82.7564L35.9974 82.9833L34.9611 94.9661C34.6045 94.4803 34.2484 94.027 33.8923 93.5412C33.4711 92.8936 33.2768 92.3106 33.3414 91.7597L18.5414 90.4645L18.0881 95.6463C17.2131 94.7066 16.4363 94.1888 15.7562 94.1236C15.4972 94.0916 15.2703 94.1237 15.0109 94.1888L16.566 76.2795ZM33.7306 107.532L33.0504 104.228C32.9527 103.84 32.6292 103.516 32.0788 103.322C31.625 103.127 31.2689 103.062 30.9774 103.127C30.1675 103.289 29.7142 104.099 29.5525 105.589C29.3582 107.726 29.1313 109.119 28.8403 109.766C28.1276 111.353 26.6381 112.357 24.4033 112.811C22.6543 113.167 21.0351 112.843 19.5776 111.839C18.0881 110.835 17.1811 109.507 16.857 107.888C16.6952 107.111 16.6306 106.269 16.6627 105.362C16.6952 104.325 16.857 103.516 17.149 102.966C16.7604 102.609 15.7887 101.961 14.2661 100.925L20.2903 99.6946L20.7762 102.123L19.0272 102.48L19.7394 105.945C19.8371 106.431 20.1606 106.787 20.711 107.014C21.1322 107.208 21.5529 107.241 21.9416 107.176C22.7189 107.014 23.2047 106.14 23.3345 104.585C23.5288 102.351 23.7877 100.893 24.1118 100.148C24.8891 98.464 26.4112 97.3952 28.7106 96.9094C30.168 96.6179 31.7227 96.8774 33.3419 97.6867C35.1229 98.5938 36.1591 99.8243 36.4832 101.412L37.1959 104.974C35.9002 105.135 34.7342 105.977 33.7306 107.532ZM53.3562 128.68C53.3562 128.68 56.9188 128.064 58.8295 124.567C49.5673 129.942 42.831 124.275 42.831 124.275C42.831 124.275 49.0815 124.728 51.186 122.655C42.863 122.526 38.8146 117.927 38.8146 117.927C38.8146 117.927 46.0043 119.449 50.1498 117.376C43.1545 117.474 40.4339 113.231 40.4339 113.231C40.4339 113.231 47.4943 115.304 52.2874 111.968C49.1456 112.616 46.2312 108.859 46.2312 108.859C46.2312 108.859 51.6073 110.284 54.3274 107.726C51.9308 107.467 50.2144 105.361 50.2144 105.361C60.8048 106.106 65.8894 99.7912 68.7392 94.7712C69.1279 96.0344 70.2613 97.0706 72.2692 97.4593L73.3706 102.414L75.5402 101.799L78.5198 106.787C79.9447 109.183 83.2483 114.947 74.1479 123.951C70.65 127.643 64.6909 129.262 64.6909 129.262C64.6909 129.262 69.1925 126.541 70.2613 123.951C62.9745 129.975 53.3562 128.68 53.3562 128.68ZM67.4115 146.945C63.8164 147.204 62.8127 149.666 62.1651 151.317C61.5821 152.775 61.3878 152.904 60.902 152.775C59.153 152.289 57.8253 143.513 57.6635 137.683C57.5984 134.703 58.0842 133.861 61.6142 133.634C64.1079 133.473 66.1484 133.117 67.3789 132.89C67.4435 133.117 67.5412 133.376 67.6058 133.667C66.9257 141.116 70.1316 145.844 70.5202 146.362C70.3264 146.459 69.6463 146.783 67.4115 146.945ZM71.4598 144.937C70.8443 143.868 69.7109 141.472 69.2897 138.071C69.4194 138.039 69.5491 138.007 69.7435 137.974C70.8443 140.144 72.3989 142.379 74.4714 144.128C73.6295 144.387 72.6258 144.678 71.4598 144.937ZM95.2636 144.937C91.4742 143.707 90.0818 144.354 88.5918 145.002C87.1343 145.65 85.4831 146.395 80.7546 145.585C76.2209 144.808 73.2088 141.148 71.3627 137.683C74.3748 137.132 80.107 136.549 83.6049 139.237C86.4547 141.44 89.8229 143.383 94.0005 143.383C96.6885 143.383 99.7006 142.606 103.133 140.565C105.271 139.302 106.761 137.877 107.829 136.452C108.801 138.492 109.74 140.047 110.388 140.986C106.21 140.986 103.943 142.476 102.097 143.706C100.153 145.002 98.5667 146.038 95.2636 144.937ZM110.808 144.128C106.954 145.973 102.388 146.427 100.38 146.556C101.255 146.2 102.032 145.682 102.809 145.164C104.558 143.998 106.534 142.702 110.193 142.67L110.808 144.128ZM114.436 155.042C111.65 155.495 103.554 156.855 101.967 156.078C101.416 155.592 100.575 151.706 100.056 148.144C102.161 148.046 108.282 147.561 112.849 144.775C113.011 144.97 113.367 145.617 113.561 147.528C113.885 150.54 115.504 150.67 117.059 150.766C117.804 150.832 118.678 150.864 119.585 151.22C119.941 151.349 120.459 151.641 120.492 152.127C120.556 153.39 118.452 154.362 114.436 155.042ZM114.436 45.7719C114.986 45.7393 115.569 45.6747 116.12 45.6101C116.929 45.5776 117.545 45.7393 117.965 46.0634L126.289 35.3764C126.839 34.9877 127.584 34.5665 128.556 34.1458C129.236 33.8217 129.754 33.4656 130.045 33.077C130.143 32.9793 130.208 32.8501 130.305 32.7529L135.551 36.7687C135.357 36.8984 135.033 37.3191 134.58 38.0318L133.575 37.2545L124.249 49.4316C124.378 49.6259 124.702 49.9174 125.188 50.2735L123.407 52.5734L114.436 45.7719ZM153.331 120.194C152.003 120.194 150.902 119.093 150.902 117.766C150.902 116.437 152.003 115.337 153.331 115.337C154.659 115.337 155.76 116.437 155.76 117.766C155.76 119.093 154.659 120.194 153.331 120.194ZM159.257 107.726C158.998 108.86 158.675 109.669 158.286 110.09C157.93 110.479 156.893 111.159 155.144 112.195L156.505 105.945L148.765 104.293L148.894 103.645L145.526 102.933C144.425 102.706 143.388 102.901 142.449 103.548C141.542 104.164 140.992 104.974 140.765 105.977C140.538 107.046 140.636 108.147 141.057 109.313C141.575 110.673 142.417 111.45 143.583 111.71C144.263 111.839 144.652 111.71 144.749 111.256C144.813 110.933 144.586 110.447 144.036 109.734L145.105 109.961C145.364 109.184 145.526 108.471 145.558 107.856L147.696 108.309L146.692 113.005L138.822 111.321L139.599 110.835C138.434 108.568 138.077 106.333 138.53 104.164C138.563 104.034 138.563 103.808 138.595 103.484C138.595 103.16 138.627 102.901 138.66 102.674C138.79 102.026 139.178 101.443 139.793 100.957C142.449 98.8201 144.198 97.4918 145.04 96.974C147.372 95.5491 149.412 94.9981 151.129 95.3868C153.849 95.9698 156.051 97.4919 157.703 99.921C159.355 102.285 159.873 104.908 159.257 107.726ZM158.059 75.5342L150.999 88.6184L160.553 87.4524L161.007 91.1446L141.024 93.6058C141.09 93.5086 141.122 93.3143 141.09 93.0548C141.057 92.7313 140.83 92.4072 140.441 92.0837L148.182 78.4492L138.11 79.6797C140.927 77.8982 143.324 76.571 145.267 75.6314C147.988 74.3682 150.481 73.5909 152.781 73.3C153.526 73.2023 154.303 73.2023 155.048 73.3C156.214 73.4938 157.412 73.6235 158.578 73.6561L157.444 75.1456C157.476 75.3399 157.671 75.4696 158.059 75.5342ZM153.914 62.4506C154.043 62.386 154.173 62.3535 154.302 62.2889L156.797 68.4097C156.57 68.4097 156.084 68.604 155.307 69.0253L154.821 67.8593L140.636 73.624C140.636 73.8504 140.766 74.2716 141.024 74.822L138.336 75.9234L134.094 65.4627C134.612 65.6896 135.098 65.9485 135.616 66.1749C136.329 66.5636 136.782 67.0174 136.976 67.5032L149.574 62.5157C150.255 62.4506 151.097 62.4832 152.133 62.6129C152.878 62.6775 153.493 62.6449 153.914 62.4506ZM148.7 51.6984L151.777 55.7468L143.227 55.1638L137.98 65.916C137.851 65.4947 137.656 65.0741 137.333 64.6528C136.782 63.9401 135.972 63.4223 134.904 63.1302C133.77 62.8067 132.766 62.9039 131.892 63.4223L131.374 62.7416L135.972 53.7709C135.033 53.6738 133.64 53.4794 131.762 53.2205L128.847 55.4548C128.912 55.6816 129.171 56.1029 129.593 56.6533L128.2 57.7221L124.249 52.5403C124.313 52.4757 124.411 52.3786 124.475 52.3134C124.605 52.1517 124.637 51.9574 124.605 51.731L136.329 42.7598C136.361 42.7272 137.074 42.5329 138.434 42.1442C139.826 41.7556 140.604 41.4967 140.766 41.3023L144.263 45.8691L139.729 49.4642C139.729 49.5288 139.826 49.7231 140.021 49.982C140.441 50.533 141.251 50.9537 142.385 51.1806C143.098 51.3423 144.231 51.4395 145.72 51.4721C147.242 51.5367 148.214 51.6013 148.7 51.6984Z" fill="white"></path><path d="M173.898 0C173.995 0.0976986 174.125 0.226896 174.222 0.324061C174.125 0.19433 174.027 0.0651324 173.898 0Z" fill="white"></path></svg> 